<mxfile host="65bd71144e">
    <diagram id="A3qWTJxBf30MFO97emnY" name="Page-1">
        <mxGraphModel dx="1377" dy="1045" grid="1" gridSize="10" guides="1" tooltips="1" connect="1" arrows="1" fold="1" page="1" pageScale="1" pageWidth="850" pageHeight="1100" math="0" shadow="0">
            <root>
                <mxCell id="0"/>
                <mxCell id="1" parent="0"/>
                <mxCell id="2" value="" style="strokeWidth=1;shadow=0;dashed=0;align=center;html=1;shape=mxgraph.mockup.containers.browserWindow;rSize=0;strokeColor=#666666;strokeColor2=#008cff;strokeColor3=#c4c4c4;mainText=,;recursiveResize=0;" parent="1" vertex="1">
                    <mxGeometry x="10" y="10" width="830" height="600" as="geometry"/>
                </mxCell>
                <mxCell id="3" value="aut.dig" style="strokeWidth=1;shadow=0;dashed=0;align=center;html=1;shape=mxgraph.mockup.containers.anchor;fontSize=17;fontColor=#666666;align=left;" parent="2" vertex="1">
                    <mxGeometry x="60" y="12" width="110" height="26" as="geometry"/>
                </mxCell>
                <mxCell id="4" value="https://autorizacao.digital/signeddoc-contract" style="strokeWidth=1;shadow=0;dashed=0;align=center;html=1;shape=mxgraph.mockup.containers.anchor;rSize=0;fontSize=17;fontColor=#666666;align=left;" parent="2" vertex="1">
                    <mxGeometry x="130" y="60" width="250" height="26" as="geometry"/>
                </mxCell>
                <mxCell id="20" value="" style="strokeWidth=1;shadow=0;dashed=0;align=center;html=1;shape=mxgraph.mockup.containers.marginRect2;rectMarginTop=32;strokeColor=#666666;gradientColor=none;" parent="2" vertex="1">
                    <mxGeometry x="30" y="200" width="770" height="330" as="geometry"/>
                </mxCell>
                <mxCell id="24" value="" style="strokeWidth=1;shadow=0;dashed=0;align=center;html=1;shape=mxgraph.mockup.containers.topButton;rSize=5;strokeColor=#008cff;fillColor=#008cff;gradientColor=none;resizeWidth=1;movable=0;deletable=1;" parent="20" vertex="1">
                    <mxGeometry width="770" height="7" relative="1" as="geometry">
                        <mxPoint y="25" as="offset"/>
                    </mxGeometry>
                </mxCell>
                <mxCell id="7" value="" style="strokeWidth=1;shadow=0;dashed=0;align=center;html=1;shape=mxgraph.mockup.misc.rrect;rSize=0;strokeColor=#666666;" parent="20" vertex="1">
                    <mxGeometry x="10" y="40" width="750" height="60" as="geometry"/>
                </mxCell>
                <mxCell id="8" value="REVISION HISTORY" style="strokeColor=inherit;fillColor=inherit;gradientColor=inherit;strokeWidth=1;shadow=0;dashed=0;align=center;html=1;shape=mxgraph.mockup.misc.rrect;rSize=0;fontSize=17;fontColor=#999999;" parent="7" vertex="1">
                    <mxGeometry width="750" height="20" as="geometry"/>
                </mxCell>
                <mxCell id="9" value="REV" style="strokeColor=inherit;fillColor=inherit;gradientColor=inherit;strokeWidth=1;shadow=0;dashed=0;align=center;html=1;shape=mxgraph.mockup.misc.rrect;rSize=0;fontSize=17;fontColor=#999999;" parent="7" vertex="1">
                    <mxGeometry y="20" width="93.75" height="20" as="geometry"/>
                </mxCell>
                <mxCell id="10" value="DATE" style="strokeColor=inherit;fillColor=inherit;gradientColor=inherit;strokeWidth=1;shadow=0;dashed=0;align=center;html=1;shape=mxgraph.mockup.misc.rrect;rSize=0;fontSize=17;fontColor=#999999;" parent="7" vertex="1">
                    <mxGeometry x="93.75" y="20" width="281.25" height="20" as="geometry"/>
                </mxCell>
                <mxCell id="11" value="DESCRIPTION" style="strokeColor=inherit;fillColor=inherit;gradientColor=inherit;strokeWidth=1;shadow=0;dashed=0;align=center;html=1;shape=mxgraph.mockup.misc.rrect;rSize=0;fontSize=17;fontColor=#999999;" parent="7" vertex="1">
                    <mxGeometry x="375" y="20" width="375" height="20" as="geometry"/>
                </mxCell>
                <mxCell id="12" value="A" style="strokeColor=inherit;fillColor=inherit;gradientColor=inherit;strokeWidth=1;shadow=0;dashed=0;align=center;html=1;shape=mxgraph.mockup.misc.rrect;rSize=0;fontSize=17;fontColor=#999999;" parent="7" vertex="1">
                    <mxGeometry y="40" width="93.75" height="20" as="geometry"/>
                </mxCell>
                <mxCell id="13" value="10/23/2014" style="strokeColor=inherit;fillColor=inherit;gradientColor=inherit;strokeWidth=1;shadow=0;dashed=0;align=center;html=1;shape=mxgraph.mockup.misc.rrect;rSize=0;fontSize=17;fontColor=#999999;" parent="7" vertex="1">
                    <mxGeometry x="93.75" y="40" width="281.25" height="20" as="geometry"/>
                </mxCell>
                <mxCell id="14" value="Design modified" style="strokeColor=inherit;fillColor=inherit;gradientColor=inherit;strokeWidth=1;shadow=0;dashed=0;align=center;html=1;shape=mxgraph.mockup.misc.rrect;rSize=0;fontSize=17;fontColor=#999999;" parent="7" vertex="1">
                    <mxGeometry x="375" y="40" width="375" height="20" as="geometry"/>
                </mxCell>
                <mxCell id="80" value="" style="verticalLabelPosition=bottom;shadow=0;dashed=0;align=center;html=1;verticalAlign=top;strokeWidth=1;shape=mxgraph.mockup.navigation.scrollBar;strokeColor=#999999;barPos=20;fillColor2=#99ddff;strokeColor2=none;direction=north;" parent="20" vertex="1">
                    <mxGeometry x="730" y="120" width="20" height="200" as="geometry"/>
                </mxCell>
                <mxCell id="83" value="Some example text that's free-flowing within the dropdown menu.&lt;br style=&quot;font-size: 14px&quot;&gt;&lt;br style=&quot;font-size: 14px&quot;&gt;And this is more example text." style="html=1;shadow=0;dashed=0;shape=mxgraph.bootstrap.rrect;rSize=5;strokeColor=#999999;strokeWidth=1;fillColor=#FFFFFF;fontColor=#6C767D;whiteSpace=wrap;align=left;verticalAlign=middle;spacingLeft=10;fontSize=14;spacing=10;" parent="20" vertex="1">
                    <mxGeometry x="10" y="120" width="710" height="200" as="geometry"/>
                </mxCell>
                <mxCell id="21" value="PROXY" style="strokeColor=inherit;fillColor=inherit;gradientColor=inherit;strokeWidth=1;shadow=0;dashed=0;align=center;html=1;shape=mxgraph.mockup.containers.rrect;rSize=0;fontSize=17;fontColor=#666666;gradientColor=none;" parent="2" vertex="1">
                    <mxGeometry width="110" height="25" relative="1" as="geometry">
                        <mxPoint x="360" y="200" as="offset"/>
                    </mxGeometry>
                </mxCell>
                <mxCell id="22" value="QUALIFICATION" style="strokeWidth=1;shadow=0;dashed=0;align=center;html=1;shape=mxgraph.mockup.containers.rrect;rSize=0;fontSize=17;" parent="2" vertex="1">
                    <mxGeometry width="170" height="25" relative="1" as="geometry">
                        <mxPoint x="30" y="200" as="offset"/>
                    </mxGeometry>
                </mxCell>
                <mxCell id="25" value="CONTRACT" style="strokeColor=#001DBC;fillColor=#0050ef;strokeWidth=1;shadow=0;dashed=0;align=center;html=1;shape=mxgraph.mockup.containers.rrect;rSize=0;fontSize=17;fontColor=#ffffff;gradientColor=none;" parent="2" vertex="1">
                    <mxGeometry width="140" height="25" relative="1" as="geometry">
                        <mxPoint x="210" y="200" as="offset"/>
                    </mxGeometry>
                </mxCell>
                <mxCell id="6" value="&lt;b&gt;&lt;font style=&quot;font-size: 15px&quot;&gt;aut.dig&lt;/font&gt;&lt;/b&gt;" style="text;html=1;strokeColor=none;fillColor=none;align=center;verticalAlign=middle;whiteSpace=wrap;rounded=0;" parent="1" vertex="1">
                    <mxGeometry x="445" y="158" width="40" height="20" as="geometry"/>
                </mxCell>
                <mxCell id="81" value="" style="shape=mxgraph.mockup.markup.scratchOut;shadow=0;dashed=0;html=1;strokeColor=#999999;strokeWidth=2;" parent="1" vertex="1">
                    <mxGeometry x="370" y="153" width="55" height="30" as="geometry"/>
                </mxCell>
                <mxCell id="84" value="SIGN FINGER" style="rounded=1;whiteSpace=wrap;html=1;align=center;fillColor=#008a00;strokeColor=#005700;fontColor=#ffffff;" vertex="1" parent="1">
                    <mxGeometry x="40" y="560" width="150" height="30" as="geometry"/>
                </mxCell>
                <mxCell id="85" value="NEXT LEVEL" style="rounded=1;whiteSpace=wrap;html=1;align=center;fillColor=#0050ef;strokeColor=#001DBC;fontColor=#ffffff;" vertex="1" parent="1">
                    <mxGeometry x="200" y="560" width="140" height="30" as="geometry"/>
                </mxCell>
                <mxCell id="86" value="&lt;font color=&quot;#ffffff&quot;&gt;GO BACK&lt;/font&gt;" style="rounded=1;whiteSpace=wrap;html=1;align=center;fillColor=#0050ef;strokeColor=#001DBC;fontColor=#ffffff;" vertex="1" parent="1">
                    <mxGeometry x="350" y="560" width="140" height="30" as="geometry"/>
                </mxCell>
                <mxCell id="87" value="" style="group" vertex="1" connectable="0" parent="1">
                    <mxGeometry x="670" y="560" width="140" height="30" as="geometry"/>
                </mxCell>
                <mxCell id="88" value="" style="rounded=1;whiteSpace=wrap;html=1;align=center;strokeWidth=1;" vertex="1" parent="87">
                    <mxGeometry width="140" height="30" as="geometry"/>
                </mxCell>
                <mxCell id="89" value="not signed" style="rounded=1;whiteSpace=wrap;html=1;align=center;strokeColor=#001DBC;fontColor=#ffffff;fillColor=#A8A8A8;" vertex="1" parent="87">
                    <mxGeometry x="8" y="6" width="90" height="20" as="geometry"/>
                </mxCell>
            </root>
        </mxGraphModel>
    </diagram>
</mxfile>